<svg xmlns="http://www.w3.org/2000/svg" viewBox="0 0 133.377 14.875" width="133.377" height="14.875" role="img" aria-label="Providencia">
<title>Providencia</title>
<g fill="#8A997B">
<path d="M8.108 1.15 C7.356 0.762 6.412 0.569 5.271 0.569 L0 0.569 L0 14.632 L2.717 14.632 L2.717 9.328 L5.271 9.328 C6.439 9.328 7.396 9.123 8.149 8.715 C8.899 8.307 9.45 7.774 9.798 7.119 C10.147 6.461 10.321 5.745 10.321 4.969 C10.321 4.127 10.14 3.375 9.778 2.72 C9.417 2.064 8.859 1.541 8.108 1.153 L8.108 1.15 Z M6.992 6.546 C6.61 6.94 5.983 7.139 5.11 7.139 L2.717 7.139 L2.717 2.78 L5.11 2.78 C5.981 2.78 6.608 2.972 6.992 3.353 C7.374 3.734 7.566 4.274 7.566 4.969 C7.566 5.625 7.374 6.151 6.992 6.546 Z"/>
<path d="M20.45 8.534 C21.195 8.14 21.74 7.616 22.089 6.967 C22.437 6.316 22.611 5.618 22.611 4.867 C22.611 4.078 22.43 3.358 22.068 2.707 C21.707 2.058 21.155 1.538 20.419 1.15 C19.682 0.762 18.742 0.569 17.601 0.569 L12.35 0.569 L12.35 14.632 L15.067 14.632 L15.067 9.127 L17.077 9.127 L19.653 14.632 L22.752 14.632 L19.863 8.788 C20.07 8.715 20.265 8.63 20.448 8.534 L20.45 8.534 Z M15.069 2.838 L17.443 2.838 C18.273 2.838 18.88 3.03 19.262 3.411 C19.644 3.792 19.836 4.312 19.836 4.967 C19.836 5.623 19.642 6.153 19.253 6.555 C18.865 6.956 18.262 7.156 17.443 7.156 L15.069 7.156 L15.069 2.838 Z"/>
<path d="M35.184 1.251 C34.14 0.635 32.925 0.326 31.543 0.326 C30.161 0.326 28.969 0.633 27.922 1.251 C26.877 1.866 26.058 2.72 25.469 3.812 C24.877 4.905 24.582 6.167 24.582 7.6 C24.582 9.034 24.877 10.295 25.469 11.388 C26.058 12.48 26.877 13.334 27.922 13.949 C28.969 14.567 30.175 14.875 31.543 14.875 C32.912 14.875 34.137 14.567 35.184 13.949 C36.231 13.334 37.046 12.48 37.629 11.388 C38.212 10.295 38.504 9.034 38.504 7.6 C38.504 6.167 38.212 4.905 37.629 3.812 C37.046 2.722 36.231 1.868 35.184 1.251 Z M35.225 10.171 C34.876 10.893 34.39 11.453 33.767 11.847 C33.142 12.242 32.4 12.44 31.543 12.44 C30.686 12.44 29.96 12.242 29.331 11.847 C28.701 11.453 28.21 10.893 27.862 10.171 C27.513 9.448 27.339 8.59 27.339 7.6 C27.339 6.61 27.513 5.736 27.862 5.018 C28.21 4.303 28.699 3.75 29.331 3.36 C29.96 2.972 30.699 2.778 31.543 2.778 C32.387 2.778 33.142 2.972 33.767 3.36 C34.39 3.75 34.876 4.301 35.225 5.018 C35.573 5.734 35.747 6.595 35.747 7.6 C35.747 8.606 35.573 9.448 35.225 10.171 Z"/>
<path d="M54.558 0.569 H57.275 V14.632 H54.558 Z"/>
<path d="M68.79 1.442 C67.723 0.858 66.375 0.569 64.736 0.569 L60.03 0.569 L60.03 14.632 L64.736 14.632 C66.386 14.632 67.741 14.34 68.799 13.758 C69.86 13.176 70.648 12.36 71.164 11.308 C71.679 10.258 71.938 9.02 71.938 7.6 C71.938 6.18 71.679 4.945 71.164 3.893 C70.648 2.843 69.855 2.024 68.788 1.442 L68.79 1.442 Z M68.741 10.119 C68.46 10.824 67.987 11.361 67.324 11.738 C66.661 12.112 65.75 12.3 64.598 12.3 L62.747 12.3 L62.747 2.878 L64.598 2.878 C65.752 2.878 66.661 3.065 67.324 3.44 C67.987 3.815 68.46 4.354 68.741 5.056 C69.023 5.759 69.163 6.606 69.163 7.598 C69.163 8.59 69.023 9.415 68.741 10.119 L68.741 10.119 Z"/>
<path d="M74.253 14.632 L83.505 14.632 L83.505 12.44 L76.968 12.44 L76.968 8.543 L82.902 8.543 L82.902 6.434 L76.968 6.434 L76.968 2.758 L83.505 2.758 L83.505 0.569 L74.253 0.569 L74.253 14.632 Z"/>
<path d="M95.174 10.271 L88.696 0.569 L85.981 0.569 L85.981 14.632 L88.696 14.632 L88.696 4.947 L95.174 14.632 L97.889 14.632 L97.889 0.569 L95.174 0.569 L95.174 10.271 Z"/>
<path d="M104.799 3.371 C105.395 2.976 106.109 2.778 106.942 2.778 C107.839 2.778 108.567 2.99 109.125 3.411 C109.681 3.832 110.047 4.419 110.221 5.168 L113.18 5.168 C112.912 3.627 112.233 2.435 111.148 1.592 C110.061 0.749 108.665 0.326 106.964 0.326 C105.556 0.326 104.346 0.633 103.334 1.251 C102.321 1.866 101.544 2.724 101.001 3.821 C100.459 4.918 100.186 6.184 100.186 7.618 C100.186 9.052 100.459 10.313 101.001 11.404 C101.544 12.496 102.323 13.345 103.334 13.956 C104.346 14.565 105.558 14.87 106.964 14.87 C108.668 14.87 110.063 14.456 111.148 13.624 C112.233 12.795 112.912 11.649 113.18 10.188 L110.204 10.188 C110.029 10.9 109.666 11.45 109.116 11.845 C108.567 12.24 107.842 12.438 106.944 12.438 C106.111 12.438 105.397 12.244 104.801 11.856 C104.205 11.468 103.745 10.911 103.423 10.188 C103.102 9.466 102.941 8.608 102.941 7.618 C102.941 6.628 103.102 5.752 103.423 5.036 C103.745 4.321 104.205 3.763 104.801 3.369 L104.799 3.371 Z"/>
<path d="M115.492 0.569 H118.207 V14.632 H115.492 Z"/>
<path d="M130.499 14.632 L133.377 14.632 L128.247 0.568 L125.168 0.568 L120.018 14.632 L122.873 14.632 L123.987 11.437 L129.392 11.437 L130.499 14.632 L130.499 14.632 Z M124.724 9.328 L126.697 3.663 L128.662 9.328 L124.724 9.328 Z"/>
<path d="M40.567 0 L37.966 1.732 L40.627 5.714 C41.534 7.07 42.011 8.648 42.011 10.278 L42.011 14.643 L45.137 14.643 L45.137 10.278 C45.137 8.028 44.476 5.852 43.226 3.982 L40.565 0 L40.567 0 Z"/>
<path d="M48.546 3.984 C47.296 5.854 46.635 8.03 46.635 10.28 L46.635 14.645 L49.761 14.645 L49.761 10.28 C49.761 8.65 50.238 7.072 51.145 5.716 L53.806 1.734 L51.205 0.002 L48.544 3.984 L48.546 3.984 Z"/>
</g>
</svg>
